<?xml version="1.0" encoding="iso-8859-1"?>
<!-- Generator: Adobe Illustrator 19.0.0, SVG Export Plug-In . SVG Version: 6.00 Build 0)  -->
<svg version="1.1" id="Layer_1" xmlns="http://www.w3.org/2000/svg" xmlns:xlink="http://www.w3.org/1999/xlink" x="0px" y="0px"
	 viewBox="0 0 346 346" style="enable-background:new 0 0 346 346;" xml:space="preserve">
<g>
	<path style="fill:#333E48;" d="M316.48,326c0,11-9,20-20,20H64.52c-11,0-20-9-20-20V20c0-11,9-20,20-20h231.96c11,0,20,9,20,20V326
		z"/>
	<path style="fill:#3E4A57;" d="M295.48,326c0,11-9,20-20,20H49.52c-11,0-20-9-20-20V20c0-11,9-20,20-20h225.96c11,0,20,9,20,20V326
		z"/>
	<rect x="53.52" y="30" style="fill:#FFFFFF;" width="218.961" height="267"/>
	<g>
		<circle style="fill:#333E48;" cx="158.5" cy="321" r="14.019"/>
		<path style="fill:#FFFFFF;" d="M162.27,327.269h-7.539c-1.379,0-2.5-1.121-2.5-2.5v-7.538c0-1.378,1.121-2.5,2.5-2.5h7.539
			c1.379,0,2.5,1.122,2.5,2.5v7.538C164.77,326.148,163.648,327.269,162.27,327.269z M154.73,315.731c-0.826,0-1.5,0.673-1.5,1.5
			v7.538c0,0.827,0.674,1.5,1.5,1.5h7.539c0.826,0,1.5-0.673,1.5-1.5v-7.538c0-0.827-0.674-1.5-1.5-1.5H154.73z"/>
	</g>
	<path style="fill:#B3B8BA;" d="M310.02,67c0,2.23-1.809,4.038-4.039,4.038s-4.037-1.808-4.037-4.038V47
		c0-2.23,1.807-4.038,4.037-4.038c2.23,0,4.039,1.808,4.039,4.038V67z"/>
	<path style="fill:#B3B8BA;" d="M310.02,110.292c0,2.23-1.809,4.038-4.039,4.038s-4.037-1.808-4.037-4.038v-20
		c0-2.23,1.807-4.038,4.037-4.038c2.23,0,4.039,1.808,4.039,4.038V110.292z"/>
	<g>
		<rect x="76.186" y="51.587" style="fill:#F6C65B;" width="103.314" height="104.099"/>
		<rect x="76.186" y="177.78" style="fill:#FF8189;" width="103.314" height="36.908"/>
		<rect x="76.186" y="236.662" style="fill:#B3B8BA;" width="173.629" height="36.908"/>
		<rect x="205.078" y="51.587" style="fill:#009BDE;" width="44.736" height="163.101"/>
	</g>
</g>
<g>
</g>
<g>
</g>
<g>
</g>
<g>
</g>
<g>
</g>
<g>
</g>
<g>
</g>
<g>
</g>
<g>
</g>
<g>
</g>
<g>
</g>
<g>
</g>
<g>
</g>
<g>
</g>
<g>
</g>
</svg>
